<?xml version="1.0" encoding="UTF-8" standalone="no"?>
<!-- Created with Inkscape (http://www.inkscape.org/) -->

<svg width="18" height="18" viewBox="-2 -2 20 20" fill="none" xmlns="http://www.w3.org/2000/svg">
<rect opacity="0.6" x="3" y="3" width="10" height="10" rx="2" fill="white"/>
<path d="M4 1H12V-1H4V1ZM15 4V12H17V4H15ZM12 15H4V17H12V15ZM1 12V4H-1V12H1ZM4 15C2.34315 15 1 13.6569 1 12H-1C-1 14.7614 1.23858 17 4 17V15ZM15 12C15 13.6569 13.6569 15 12 15V17C14.7614 17 17 14.7614 17 12H15ZM12 1C13.6569 1 15 2.34315 15 4H17C17 1.23858 14.7614 -1 12 -1V1ZM4 -1C1.23858 -1 -1 1.23858 -1 4H1C1 2.34315 2.34315 1 4 1V-1Z" fill="white" fill-opacity="0.6"/>
</svg>
