<svg xmlns="http://www.w3.org/2000/svg" width="23.501" height="17.857" viewBox="0 0 23.501 17.857">
  <path id="Open_Folder" d="M64.056,62.347l-.028.215-.081.19-.137.218-.134.243-4.207,5.021-.3.3-.352.271-.406.271-.462.246-.462.19-.462.162-.434.081H42.158l-.19-.053-.165-.084-.134-.106-.109-.137-.081-.134v-.38l.081-.19.137-.243.162-.19,4.207-5.021.3-.324.327-.271.406-.3.462-.218.462-.215.462-.109.434-.109.462-.028H62.943l.215.028.19.028.19.053.19.081.109.081.109.109.081.162ZM59.74,58v2.008H49.374l-.6.056-.327.025-.3.081-.3.081-.327.109-.324.109-.3.162-.3.165-.327.134-.271.19-.271.19-.487.406-.408.436-4.207,5.018-.081.081V54.448l.056-.271.053-.243.109-.271.109-.243.134-.246.162-.215.218-.218.19-.215.243-.137.218-.162.243-.137.243-.053.271-.081.271-.028.271-.028h4.017l.271.028.271.028.271.081.246.053.243.137.243.162.19.137.243.215.165.218.19.215.134.246.109.243.109.271.053.243.053.271v.708h6.786l.3.025.271.028.243.081.271.056.215.134.246.137.215.162.218.215.218.218.134.218.162.243.109.243.081.271.056.246.053.271Z" transform="translate(-40.555 -51.896)" fill="#ccc" fill-rule="evenodd"/>
</svg>
