<svg xmlns="http://www.w3.org/2000/svg" xmlns:xlink="http://www.w3.org/1999/xlink" version="1.1" width="1000" height="1000" viewBox="0 0 1000 1000" xml:space="preserve">
<desc>Created with Fabric.js 3.5.0</desc>
<defs>
</defs>
<g transform="matrix(-40.9944 0 0 -40.9944 499.9996 499.9996)" id="923292">
<path style="stroke: none; stroke-width: 1; stroke-dasharray: none; stroke-linecap: butt; stroke-dashoffset: 0; stroke-linejoin: miter; stroke-miterlimit: 4; is-custom-font: none; font-file-url: none; fill: rgb(138,119,129); fill-rule: evenodd; opacity: 1;" vector-effect="non-scaling-stroke" transform=" translate(-634.5285, -158.923)" d="M 644.119 159.383 L 625.456 169.92 l -0.182 0.06 l -0.151 0.031 L 625 169.98 l -0.123 -0.031 l -0.091 -0.06 l -0.091 -0.123 l -0.031 -0.151 l -0.031 -0.186 V 148.418 l 0.031 -0.183 l 0.031 -0.154 l 0.091 -0.123 l 0.091 -0.06 l 0.123 -0.031 l 0.123 -0.032 l 0.151 0.032 l 0.182 0.063 l 18.663 10.537 l 0.151 0.12 l 0.091 0.091 l 0.063 0.123 v 0.246 l -0.063 0.123 l -0.091 0.091 l -0.151 0.123 Z" stroke-linecap="round"/>
</g>
</svg>